<svg width="24" height="24" viewBox="0 0 24 24" fill="none" xmlns="http://www.w3.org/2000/svg">
<g clip-path="url(#clip0_290_3733)">
<path d="M17.4296 23.9981H2.62157C1.17587 23.9981 0 22.82 0 21.3717V6.53653C0 5.08818 1.17587 3.91016 2.62157 3.91016H17.4296C18.8753 3.91016 20.0512 5.08818 20.0512 6.53653V21.3717C20.0512 22.82 18.8753 23.9981 17.4296 23.9981ZM2.62157 6.10796C2.38552 6.10796 2.19378 6.30049 2.19378 6.53653V21.3717C2.19378 21.6082 2.38596 21.8003 2.62157 21.8003H17.4296C17.6657 21.8003 17.8574 21.6077 17.8574 21.3717V6.53653C17.8574 6.30005 17.6652 6.10796 17.4296 6.10796H2.62157Z" fill="#171619"/>
<path d="M22.9028 18.6185C22.8887 18.6185 22.8747 18.6185 22.8606 18.6176C22.2552 18.5947 21.7831 18.0844 21.8063 17.4778C21.8063 17.4725 21.8063 17.4668 21.8063 17.4615V4.61846C21.8063 3.28352 20.7226 2.1978 19.3901 2.1978H6.57048C6.5538 2.1978 6.53713 2.19868 6.52046 2.20044C5.91892 2.26769 5.37574 1.83341 5.30861 1.23033C5.24148 0.627253 5.67497 0.083956 6.27695 0.0162637C6.37391 0.00527473 6.47263 0 6.57048 0H19.3901C21.9322 0 24.0001 2.07165 24.0001 4.61846V17.4615C24.0001 17.4949 23.9997 17.5279 23.9983 17.5613C23.976 18.1534 23.4894 18.6185 22.9028 18.6185Z" fill="#171619"/>
</g>
<defs>
<clipPath id="clip0_290_3733">
<rect width="24" height="24" fill="white"/>
</clipPath>
</defs>
</svg>
